<svg xmlns="http://www.w3.org/2000/svg" fill="none" viewBox="0 0 538 98" aria-hidden="true"><g opacity="0.8" fill="#ffca32"><path d="M533.518 47.3523C533.343 45.7641 526.902 45.0081 518.589 44.4329C510.316 43.6466 486.558 41.1542 486.493 41.3466C487.946 37.6133 472.74 35.8355 466.621 35.6091C460.54 35.3313 424.541 33.6332 414.055 33.3316C409.897 33.1949 398.906 32.8703 397.138 32.8072C395.764 32.7445 395.154 32.539 395.291 32.1192C395.494 31.507 396.516 31.4827 397.286 31.4469C398.084 31.4123 406.874 31.4233 411.65 31.2864C417.108 31.1274 418.279 29.2989 417.32 28.2607C416.241 27.1106 413.495 26.5413 410.065 26.2958C406.639 26.0327 390.588 25.1217 381.491 24.7949C374.588 24.5327 349.914 24.0623 347.263 24.03C345.572 24.0059 345.633 22.6593 347.488 22.5665C349.347 22.4562 379.167 22.3272 386.252 22.3846C393.343 22.4068 393.353 21.1821 393.122 20.1772C392.876 18.9586 385.786 18.0487 376.965 17.6102C340.629 15.7547 292.721 15.8562 276.215 15.9897C241.131 16.1445 185.715 18.2467 154.071 20.2099C119.008 22.3186 82.3967 25.5641 41.9886 30.7667C35.6102 31.5938 34.0628 35.376 34.0628 35.376C28.3213 36.1258 11.1168 39.2991 5.30916 41.7148C-0.52986 44.1469 -0.301346 48.5429 7.88436 48.3132C15.2192 48.0979 32.5378 46.8296 43.4574 45.9081C53.6068 45.0224 83.3785 42.7961 87.3965 42.4826C91.3933 42.1325 91.7503 44.244 87.2211 44.5697C84.2144 44.7697 69.9932 46.8365 62.4899 48.0738C56.6517 49.0322 55.5258 51.9459 55.7396 53.0388C55.9534 54.1316 57.2973 55.0808 63.4238 54.828C69.5291 54.5388 100.941 51.4287 113.912 50.4234C126.893 49.3652 160.42 46.7246 163.083 46.5445C165.75 46.3467 165.537 48.0415 163.046 48.3538C160.555 48.6661 144.293 50.32 137.673 51.225C129.892 52.2899 125.74 54.0355 126.279 56.0842C126.818 58.1329 131.536 58.2953 138.651 57.7504C145.752 57.1338 224.113 50.3805 287.135 48.1287C331.025 46.4233 388.973 45.2713 437.974 46.3916C487.428 47.213 516.297 48.4119 524.119 48.8937C532.007 49.183 533.807 49.0877 533.599 47.3737L533.518 47.3523ZM512.336 51.9022C502.877 51.2569 441.154 50.1412 409.965 49.8881C378.83 49.3533 301.091 51.1101 292.458 51.9053C289.703 52.1168 289.828 54.5549 292.85 54.5687C295.909 54.3889 382.255 53.0075 382.221 53.1835C382.221 53.1835 381.747 56.2336 389.182 56.378C396.696 56.2597 499.773 55.7847 511.103 56.1071C516.328 56.1328 516.694 52.1723 512.308 51.9009L512.336 51.9022ZM95.6628 20.9679C97.9903 20.7724 106.133 19.8838 112.713 19.3322C124.007 18.3745 143.222 16.9443 154.396 16.3185C166.515 15.6294 192.182 14.4584 194.346 14.3797C196.481 14.2997 196.953 14.0549 196.931 13.4325C196.881 12.8088 196.058 12.2385 194.413 12.2699C192.767 12.3012 190.19 12.3255 184.161 12.5117C178.275 12.6867 153.984 13.7606 150.703 13.9126C148.596 13.9939 148.96 12.9807 150.412 12.7807C151.546 12.6195 155.553 12.2166 157.782 11.9456C159.199 11.7795 159.904 11.4921 160.101 11.0573C160.276 10.5859 160.367 9.96858 156.498 10.0937C152.889 10.1951 133.763 11.4518 126.86 11.9177C119.93 12.3823 104.542 13.7565 95.756 14.8998C92.8275 15.2809 89.1465 16.7817 88.9179 19.2926C88.7314 21.2904 92.4778 21.213 95.7503 20.9541L95.6628 20.9679Z"></path><path d="M504.614 68.5585C504.444 66.9765 498.798 66.3348 491.515 65.9063C484.266 65.2663 479.055 64.0334 479 64.2265C480.232 60.4753 466.904 58.9672 461.546 58.8484C456.221 58.6775 424.695 57.6128 415.513 57.4953C411.873 57.4317 402.25 57.3 400.701 57.268C399.498 57.2295 398.962 57.0351 399.077 56.6137C399.248 55.9992 400.143 55.9571 400.816 55.9078C401.515 55.8594 409.208 55.7165 413.386 55.4963C418.162 55.2422 419.168 53.3968 418.317 52.3776C417.361 51.2486 414.952 50.7285 411.947 50.5435C408.945 50.3409 394.887 49.7127 386.921 49.5457C380.876 49.4049 359.276 49.3672 356.955 49.3813C355.474 49.3869 355.514 48.0419 357.137 47.9169C358.762 47.7742 384.861 47.1237 391.063 47.057C397.27 46.955 397.265 45.7326 397.052 44.7339C396.824 43.522 390.609 42.738 382.884 42.4548C351.061 41.2388 309.131 42.1785 294.685 42.6006C263.979 43.369 215.498 46.4366 187.823 48.9496C157.156 51.6677 125.147 55.5473 89.8344 61.4465C84.2605 62.3836 82.9462 66.1852 82.9462 66.1852C77.9289 67.0339 62.9043 70.5019 57.8467 73.0143C52.7619 75.5436 53.0085 79.9268 60.1706 79.5543C66.5882 79.2111 81.7329 77.6423 91.2805 76.5316C100.154 75.4701 126.189 72.7273 129.702 72.3441C133.196 71.9248 133.531 74.0257 129.571 74.43C126.941 74.6822 114.516 76.9937 107.962 78.3599C102.862 79.4185 101.907 82.346 102.106 83.4329C102.305 84.5198 103.491 85.4435 108.851 85.0841C114.191 84.6886 141.651 81.0351 152.994 79.8048C164.344 78.5217 193.66 75.2997 195.99 75.0733C198.322 74.8293 198.154 76.5244 195.977 76.8796C193.8 77.2349 179.584 79.1701 173.8 80.189C167.001 81.3879 163.385 83.2027 163.878 85.2378C164.371 87.273 168.503 87.3524 174.725 86.6841C180.933 85.9445 249.447 77.8336 304.583 74.4836C342.98 72.0135 393.687 69.8498 436.587 70.1104C479.881 70.0647 489.552 69.9174 496.404 70.2612C503.311 70.412 504.884 70.2854 504.685 68.5785L504.614 68.5585ZM501.731 74.3085C493.445 73.8301 439.41 73.7968 412.109 74.0899C384.853 74.101 316.83 77.2147 309.282 78.1593C306.873 78.4186 307.008 80.8496 309.653 80.8105C312.329 80.5775 387.889 77.688 387.861 77.8642C387.861 77.8642 387.479 80.9163 393.988 80.9304C400.563 80.6808 490.776 78.4031 500.696 78.5265C505.27 78.4607 505.548 74.5018 501.706 74.3077L501.731 74.3085ZM136.709 50.7282C138.744 50.4924 145.862 49.4631 151.615 48.7975C161.49 47.6441 178.293 45.8805 188.066 45.0605C198.666 44.1606 221.119 42.5429 223.012 42.4265C224.88 42.3093 225.29 42.0567 225.264 41.436C225.214 40.8144 224.488 40.2597 223.048 40.3197C221.608 40.3798 219.352 40.4492 214.077 40.7405C208.928 41.0181 187.678 42.515 184.809 42.724C182.965 42.842 183.273 41.8245 184.542 41.5995C185.532 41.4188 189.035 40.9466 190.983 40.6371C192.221 40.4466 192.836 40.1475 193.003 39.71C193.152 39.2365 193.225 38.6189 189.84 38.8114C186.682 38.9758 169.955 40.5647 163.919 41.1504C157.858 41.7353 144.404 43.3761 136.726 44.6708C134.167 45.1024 130.961 46.6646 130.788 49.1743C130.646 51.1714 133.924 51.0286 136.785 50.713L136.709 50.7282Z"></path></g></svg>